<svg xmlns="http://www.w3.org/2000/svg" width="900" height="104" viewBox="0 0 900 104" role="img" aria-labelledby="title"><title id="title">更多链接与技能</title><rect x="1" y="1" width="898" height="102" rx="13" fill="#ffffff" stroke="#d9e2f2"/><text x="25" y="33" fill="#17213a" font-family="Inter,Segoe UI,Microsoft YaHei,sans-serif" font-size="18" font-weight="720">更多</text><text x="91" y="33" fill="#398eb8" font-family="Inter,Segoe UI,sans-serif" font-size="12">www.ymxc152.top</text><text x="236" y="33" fill="#a4afc3" font-family="Inter,Segoe UI,sans-serif" font-size="12">/</text><text x="254" y="33" fill="#398eb8" font-family="Inter,Segoe UI,sans-serif" font-size="12">blog.ymxc152.top</text><line x1="25" y1="49" x2="875" y2="49" stroke="#e0e7f3"/><g font-family="Inter,Segoe UI,sans-serif" font-size="12" fill="#4e5b73"><circle cx="35" cy="76" r="7" fill="#3975c6"/><text x="48" y="80">Python</text><circle cx="130" cy="76" r="7" fill="#e3b341"/><text x="143" y="80">Linux</text><circle cx="214" cy="76" r="7" fill="#2b9fd8"/><text x="227" y="80">Docker</text><circle cx="316" cy="76" r="7" fill="#745bd8"/><text x="329" y="80">SQLite</text><circle cx="417" cy="76" r="7" fill="#e5644b"/><text x="430" y="80">Git</text><circle cx="483" cy="76" r="7" fill="#46b0b8"/><text x="496" y="80">Shell</text><circle cx="566" cy="76" r="7" fill="#6673e8"/><text x="579" y="80">Agent</text></g><path d="M768 75c18-14 39-14 57 0-18 14-39 14-57 0Z" fill="#f3f6ff" stroke="#7785e7" stroke-width="1.5"/><circle cx="796" cy="75" r="5.5" fill="#42aabd"/><text x="865" y="80" text-anchor="end" fill="#66738d" font-family="Inter,Segoe UI,sans-serif" font-size="10">ORBITAL BASE</text></svg>
